# xmcd CD database file
# Copyright (C) 1997 Ti Kan
# 
# Track frame offsets:
#     150
#     14840
#     29095
#     43167
#     56855
#     69695
#     81737
#     94407
#     107057
#     119975
#     134325
#     149022
#     161277
#     173287
#     186450
#     199682
#     212195
#     226750
#     240135
#     253350
#     266032
#     280415
#     293425
#     308170
#     323382
# 
# Disc length: 4507 seconds
# 
# Revision: 1
# Processed by: cddbd v1.4b41PL1 Copyright (c) Steve Scherf et al.
# Submitted via: DiscPlay 4.0.3
# 
DISCID=88119919
DTITLE=Blind Blake - Complete Recorded Works - Vol. 3
DYEAR=1900
DGENRE=
TTITLE0=Elzadie's Policy Blues
TTITLE1=Pay Day Daddy Blues
TTITLE2=Walkin' Across The Country
TTITLE3=Search Warrant Blues
TTITLE4=Ramblin' MaMa Blues
TTITLE5=New Style Of Loving
TTITLE6=Back Door Slam Blues
TTITLE7=Notoriety Woman Blues
TTITLE8=Cold Hearted MaMa Blues
TTITLE9=Low Down Loving Gal
TTITLE10=Sweet Papa Low Down
TTITLE11=Poker Woman Blues
TTITLE12=Doing A Stretch
TTITLE13=Fightin' The Jug
TTITLE14=Hookworm Blues
TTITLE15=Slippery Rag
TTITLE16=Hastings St.
TTITLE17=Diddie Wa Diddie
TTITLE18=Too Tight Blues No. 2
TTITLE19=Chump Man Blues
TTITLE20=Ice Man Blues
TTITLE21=Police Dog BLues
TTITLE22=I Was Afraid Of That - Part 2
TTITLE23=Georgia Bound
TTITLE24=Keep It Home
EXTD=
EXTT0=
EXTT1=
EXTT2=
EXTT3=
EXTT4=
EXTT5=
EXTT6=
EXTT7=
EXTT8=
EXTT9=
EXTT10=
EXTT11=
EXTT12=
EXTT13=
EXTT14=
EXTT15=
EXTT16=
EXTT17=
EXTT18=
EXTT19=
EXTT20=
EXTT21=
EXTT22=
EXTT23=
EXTT24=
PLAYORDER=
